<svg width="16" height="16" viewBox="0 0 16 16" fill="none" xmlns="http://www.w3.org/2000/svg">
<path fill-rule="evenodd" clip-rule="evenodd" d="M12 0.666992C12.3681 0.666992 12.6668 0.964968 12.667 1.33301V1.63281C12.5206 1.58639 12.3683 1.54811 12.2109 1.51562C12.914 1.66075 13.5079 1.93083 13.9883 2.4502C14.5404 3.04727 14.7782 3.79546 14.8906 4.69922C15.0001 5.57939 15 6.70306 15 8.11621V8.55078C15 9.96397 15.0001 11.0876 14.8906 11.9678C14.7782 12.8715 14.5404 13.6197 13.9883 14.2168C13.4291 14.8213 12.7164 15.0889 11.8564 15.2139C11.0324 15.3336 9.98439 15.333 8.68555 15.333H7.31445C6.01561 15.333 4.96761 15.3336 4.14355 15.2139C3.28357 15.0889 2.57091 14.8213 2.01172 14.2168C1.45955 13.6197 1.22179 12.8715 1.10938 11.9678C0.999913 11.0876 0.999988 9.96397 1 8.55078V8.11621C0.999988 6.70307 0.999927 5.57939 1.10938 4.69922C1.22177 3.79546 1.45963 3.04727 2.01172 2.4502C2.49192 1.93106 3.08548 1.6608 3.78809 1.51562C3.63106 1.54807 3.47906 1.58648 3.33301 1.63281V1.33301C3.33318 0.964968 3.63192 0.666992 4 0.666992C4.36808 0.666992 4.66682 0.964967 4.66699 1.33301V1.39453C4.6392 1.39686 4.61135 1.39984 4.58398 1.40234C5.33161 1.33392 6.23668 1.33299 7.31445 1.33301H8.68555C9.76285 1.33299 10.6676 1.334 11.415 1.40234C11.388 1.39987 11.3605 1.39683 11.333 1.39453V1.33301C11.3332 0.964967 11.6319 0.666992 12 0.666992ZM2.99902 6C2.69339 6 2.53975 5.9997 2.44238 6.0957C2.34507 6.19176 2.34278 6.34299 2.33887 6.64453C2.33305 7.09329 2.33301 7.59609 2.33301 8.16211V8.50488C2.33301 9.97442 2.33463 11.0146 2.43262 11.8027C2.52888 12.5768 2.70882 13.0062 2.99121 13.3115C3.26671 13.6093 3.6431 13.7939 4.33496 13.8945C5.05193 13.9987 6.00262 14 7.36621 14H8.63379C9.99738 14 10.9481 13.9987 11.665 13.8945C12.3569 13.7939 12.7333 13.6093 13.0088 13.3115C13.2912 13.0062 13.4711 12.5768 13.5674 11.8027C13.6654 11.0146 13.667 9.97442 13.667 8.50488V8.16211C13.667 7.59609 13.667 7.09329 13.6611 6.64453C13.6572 6.34299 13.6549 6.19176 13.5576 6.0957C13.4602 5.99971 13.3066 6 13.001 6H2.99902ZM8.66699 10.667C9.03492 10.6672 9.33283 10.9651 9.33301 11.333C9.33301 11.7011 9.03503 11.9998 8.66699 12H5.33301C4.96497 11.9998 4.66699 11.7011 4.66699 11.333C4.66717 10.9651 4.96508 10.6672 5.33301 10.667H8.66699ZM10.667 10.667C11.0349 10.6672 11.3328 10.9651 11.333 11.333C11.333 11.7011 11.035 11.9998 10.667 12H10.6611C10.2929 12 9.99414 11.7012 9.99414 11.333C9.99432 10.965 10.2931 10.667 10.6611 10.667H10.667ZM5.33887 8C5.70706 8 6.00586 8.2988 6.00586 8.66699C6.00568 9.03503 5.70695 9.33301 5.33887 9.33301H5.33301C4.96508 9.33283 4.66717 9.03492 4.66699 8.66699C4.66699 8.29891 4.96497 8.00018 5.33301 8H5.33887ZM10.667 8C11.035 8.00018 11.333 8.29891 11.333 8.66699C11.3328 9.03492 11.0349 9.33283 10.667 9.33301H7.33301C6.96508 9.33283 6.66717 9.03492 6.66699 8.66699C6.66699 8.29891 6.96497 8.00018 7.33301 8H10.667Z" fill="#808080"/>
</svg>
