<svg width="15" height="15" viewBox="0 0 15 15" fill="none" xmlns="http://www.w3.org/2000/svg">
<path d="M7.16699 0C11.125 3.3823e-07 14.334 3.20895 14.334 7.16699C14.334 11.125 11.125 14.334 7.16699 14.334C3.20895 14.334 3.38219e-07 11.125 0 7.16699C0 3.20895 3.20895 0 7.16699 0ZM7.16699 3.16699C6.7988 3.16699 6.5 3.46579 6.5 3.83398V5.63867C5.91145 5.89589 5.5 6.48361 5.5 7.16699C5.5 8.08747 6.24652 8.83398 7.16699 8.83398C7.38195 8.83398 7.58771 8.79285 7.77637 8.71875L8.69531 9.63867C8.95566 9.89902 9.37832 9.89902 9.63867 9.63867C9.89902 9.37832 9.89902 8.95566 9.63867 8.69531L8.71875 7.77637C8.79285 7.58771 8.83398 7.38195 8.83398 7.16699C8.83398 6.48361 8.42254 5.89589 7.83398 5.63867V3.83398C7.83398 3.46579 7.53518 3.16699 7.16699 3.16699Z" fill="#D00416"/>
</svg>
