<svg width="24" height="24" viewBox="0 0 24 24" fill="none" xmlns="http://www.w3.org/2000/svg">
<path d="M12.582 1.25098C10.86 2.57598 9.75 4.659 9.75 7C9.75 11.004 12.996 14.25 17 14.25C18.372 14.25 19.656 13.869 20.75 13.2061V14.0586C20.75 15.8946 20.7499 17.3531 20.5869 18.4951C20.4189 19.675 20.0652 20.6271 19.2744 21.374C18.4905 22.1139 17.5002 22.4416 16.2715 22.5977C15.0715 22.7497 13.534 22.75 11.583 22.75H10.417C8.46623 22.75 6.92943 22.7496 5.72949 22.5977C4.50049 22.4417 3.50959 22.114 2.72559 21.374C1.93475 20.6271 1.58108 19.675 1.41309 18.4951C1.25009 17.3531 1.25 15.8946 1.25 14.0586L1.25 9.94141C1.25 8.10541 1.25009 6.64688 1.41309 5.50488C1.58108 4.32504 1.93475 3.37292 2.72559 2.62598C3.50959 1.88598 4.50049 1.55834 5.72949 1.40234C6.92943 1.2504 8.46623 1.25 10.417 1.25L11.583 1.25C11.929 1.25 12.262 1.24998 12.582 1.25098ZM6 16C5.448 16 5 16.448 5 17C5 17.552 5.448 18 6 18H14C14.552 18 15 17.552 15 17C15 16.448 14.552 16 14 16H6ZM6 12C5.448 12 5 12.448 5 13C5 13.552 5.448 14 6 14L9.1084 14C9.66122 13.9998 10.1084 13.5519 10.1084 13C10.1084 12.4481 9.66122 12.0002 9.1084 12L6 12ZM17 1.25C20.176 1.25 22.75 3.824 22.75 7C22.75 10.176 20.176 12.75 17 12.75C13.824 12.75 11.25 10.176 11.25 7C11.25 3.824 13.824 1.25 17 1.25ZM19.707 5.25C19.569 4.859 19.14 4.65497 18.75 4.79297C18.267 4.96395 17.8204 5.28425 17.4414 5.61621C17.0555 5.95514 16.6965 6.34609 16.3955 6.70703C16.2495 6.88198 16.1141 7.05295 15.9932 7.21191C15.9053 7.12902 15.8164 7.05993 15.7295 7.00098L15.7227 6.99805C15.5647 6.89206 15.3518 6.75 15 6.75C14.586 6.75 14.25 7.086 14.25 7.5C14.25 7.87495 14.5249 8.18514 14.8838 8.24121C14.8868 8.24321 14.8925 8.24602 14.8965 8.24902C14.9528 8.28637 15.1245 8.42581 15.3291 8.83594C15.4501 9.07691 15.692 9.23499 15.9619 9.24902C16.2318 9.26302 16.4878 9.13014 16.6328 8.90234C16.7958 8.67136 17.2759 7.99199 17.5469 7.66797C17.8178 7.34205 18.1218 7.0141 18.4297 6.74414C18.7457 6.46714 19.027 6.28603 19.25 6.20703C19.641 6.06903 19.845 5.64 19.707 5.25Z" fill="url(#paint0_linear_1_7398)"/>
<defs>
<linearGradient id="paint0_linear_1_7398" x1="25.1946" y1="-52.5001" x2="-9.83801" y2="-47.494" gradientUnits="userSpaceOnUse">
<stop stop-color="#FF605D"/>
<stop offset="0.33" stop-color="#FD527B"/>
<stop offset="0.66" stop-color="#BB4ABF"/>
<stop offset="1" stop-color="#675ED8"/>
</linearGradient>
</defs>
</svg>
