<svg width="16" height="16" viewBox="0 0 16 16" fill="none" xmlns="http://www.w3.org/2000/svg">
<path d="M3.60474 5.4632C3.30828 5.68154 3.24495 6.09887 3.46329 6.39534C3.63289 6.62561 3.80252 6.8445 3.9513 7.03514C4.24831 7.41572 4.65719 7.92541 5.10143 8.43705C5.54279 8.94538 6.03214 9.47089 6.489 9.87455C6.71667 10.0757 6.95197 10.2607 7.18142 10.399C7.39256 10.5263 7.68269 10.6666 8.00011 10.6666C8.31753 10.6666 8.60768 10.5263 8.81883 10.399C9.04828 10.2607 9.28358 10.0757 9.51124 9.87455C9.9681 9.47089 10.4575 8.94538 10.8988 8.43705C11.3431 7.92541 11.7519 7.41572 12.0489 7.03514C12.1977 6.8445 12.3674 6.62561 12.537 6.39534C12.7553 6.09887 12.692 5.68154 12.3955 5.4632C12.2763 5.37543 12.1376 5.33318 12.0002 5.3333L8.00012 5.3333L4.00008 5.3333C3.86262 5.33318 3.72391 5.37543 3.60474 5.4632Z" fill="url(#paint0_linear_1_8826)"/>
<defs>
<linearGradient id="paint0_linear_1_8826" x1="-20.0004" y1="4.72688" x2="-19.2811" y2="13.5359" gradientUnits="userSpaceOnUse">
<stop stop-color="#FF605D"/>
<stop offset="0.33" stop-color="#FD527B"/>
<stop offset="0.66" stop-color="#BB4ABF"/>
<stop offset="1" stop-color="#675ED8"/>
</linearGradient>
</defs>
</svg>
