<svg width="16" height="16" viewBox="0 0 16 16" fill="none" xmlns="http://www.w3.org/2000/svg">
<path fill-rule="evenodd" clip-rule="evenodd" d="M8 15.167C11.958 15.167 15.167 11.958 15.167 8C15.167 4.04196 11.958 0.833008 8 0.833008C4.04196 0.833008 0.833008 4.04196 0.833008 8C0.833008 11.958 4.04196 15.167 8 15.167ZM6.8252 7.14063C6.62104 7.20868 6.39574 7.13893 6.2666 6.9668C5.9666 6.5668 5.36641 6.5668 5.06641 6.9668C4.90068 7.18753 4.58706 7.23204 4.36621 7.06641C4.14566 6.90064 4.10102 6.58699 4.2666 6.36621C4.60794 5.91127 5.11613 5.67825 5.62793 5.66699C5.45164 5.47068 5.45769 5.16829 5.64648 4.97949C5.84171 4.78445 6.15829 4.78445 6.35352 4.97949C6.37595 5.00353 6.44696 5.07961 6.4834 5.12207C6.55556 5.20625 6.652 5.32714 6.74902 5.47266C6.93229 5.74756 7.16699 6.18337 7.16699 6.66699C7.16685 6.8819 7.02899 7.07246 6.8252 7.14063ZM9.7334 6.9668C9.60426 7.13893 9.37895 7.20868 9.1748 7.14063C8.97101 7.07246 8.83315 6.8819 8.83301 6.66699C8.83301 6.18337 9.06771 5.74756 9.25098 5.47266C9.348 5.32714 9.44444 5.20625 9.5166 5.12207C9.55304 5.07961 9.62405 5.00353 9.64648 4.97949C9.84171 4.78445 10.1583 4.78445 10.3535 4.97949C10.5423 5.16829 10.5484 5.47068 10.3721 5.66699C10.8839 5.67825 11.3921 5.91127 11.7334 6.36621C11.899 6.58699 11.8543 6.90064 11.6338 7.06641C11.4129 7.23204 11.0993 7.18753 10.9336 6.9668C10.6336 6.5668 10.0334 6.5668 9.7334 6.9668ZM8 11.833C6.74564 11.833 5.63204 11.2297 4.93359 10.2998C4.76803 10.0791 4.8126 9.76637 5.0332 9.60059C5.254 9.43475 5.56756 9.47939 5.7334 9.7002C6.25113 10.3893 7.07368 10.833 8 10.833C8.92632 10.833 9.74887 10.3893 10.2666 9.7002C10.4324 9.47939 10.746 9.43475 10.9668 9.60059C11.1874 9.76637 11.232 10.079 11.0664 10.2998C10.368 11.2298 9.25437 11.833 8 11.833Z" fill="#1FC16B"/>
</svg>
