<svg width="20" height="22" viewBox="0 0 20 22" fill="none" xmlns="http://www.w3.org/2000/svg">
<path d="M7.27623 0.799194C8.10201 0.299639 8.8763 0 9.75008 0C10.6239 0 11.3981 0.29964 12.2239 0.799194C13.0237 1.28302 13.9378 1.9968 15.0852 2.89286L16.2685 3.81682C17.6445 4.89061 18.5339 5.58466 19.0176 6.57756C19.5011 7.57002 19.5007 8.70006 19.5001 10.4499L19.5001 12.783V12.783C19.5001 14.6285 19.5001 16.0896 19.347 17.2329C19.1895 18.4091 18.8577 19.3609 18.1099 20.1117C16.9196 21.3068 15.9559 21.4647 13.5282 21.4999C13.3274 21.5028 13.1338 21.4251 12.9908 21.2842C12.8478 21.1432 12.7673 20.9508 12.7673 20.75V16.7557C12.7673 16.2795 12.7669 15.9599 12.75 15.7124C12.75 14.8823 12.0172 14.523 11.5605 14.523C11.3131 14.5061 10.2263 14.5057 9.75008 14.5057C9.0238 14.5057 8.20421 14.5061 7.95674 14.523C7.49992 14.523 6.76729 14.8778 6.76729 15.7124C6.75041 15.9599 6.75 16.2795 6.75 16.7557V20.75C6.75 20.9508 6.66948 21.1432 6.52646 21.2842C6.38345 21.4251 6.18989 21.5028 5.98911 21.4999C3.56142 21.4647 2.58057 21.3068 1.39026 20.1117C0.642432 19.3609 0.310671 18.4091 0.15316 17.2329C4.98891e-05 16.0895 6.22852e-05 14.6284 7.79016e-05 12.783L7.82592e-05 10.6346L3.84433e-05 10.4499C-0.000531675 8.70007 -0.000899792 7.57002 0.482563 6.57756C0.966237 5.58466 1.85564 4.89061 3.23164 3.81683L4.41493 2.89286L4.41494 2.89285C5.56241 1.99679 6.47645 1.28302 7.27623 0.799194Z" fill="#CCCCCC"/>
</svg>
