<svg width="24" height="24" viewBox="0 0 24 24" fill="none" xmlns="http://www.w3.org/2000/svg">
<path fill-rule="evenodd" clip-rule="evenodd" d="M12 1.25C17.9371 1.25 22.75 6.06294 22.75 12C22.75 17.9371 17.9371 22.75 12 22.75C6.06294 22.75 1.25 17.9371 1.25 12C1.25 6.06294 6.06294 1.25 12 1.25ZM11.0394 11H11C10.4477 11 10 11.4477 10 12C10 12.5523 10.4477 13 11 13V17C11 17.5523 11.4477 18 12 18C12.5523 18 13 17.5523 13 17V12.9606C13.0001 12.7608 13.0003 12.5228 12.9728 12.3182C12.9396 12.0711 12.8507 11.7294 12.5607 11.4394C12.2707 11.1494 11.9289 11.0605 11.6819 11.0273C11.4772 10.9997 11.2393 10.9999 11.0394 11ZM12.0044 7C11.4456 7 10.9999 7.44772 10.9999 8C10.9999 8.55228 11.4456 9 11.9954 9C12.5542 9 12.9999 8.55228 12.9999 8C12.9999 7.44772 12.5542 7 12.0044 7Z" fill="#CCCCCC"/>
</svg>
