<svg width="22" height="17" viewBox="0 0 22 17" fill="none" xmlns="http://www.w3.org/2000/svg">
<rect width="21.76" height="17" rx="3" fill="#249F58"/>
<path fill-rule="evenodd" clip-rule="evenodd" d="M16.5792 11.3333V10.2H5.18112L7.2535 11.3333H13.4706C13.4706 11.9589 14.167 12.4666 15.0249 12.4666C15.8829 12.4666 16.5792 11.9589 16.5792 11.3333ZM9.04611 4.42676C9.03367 4.42676 9.01502 4.43356 8.99119 4.44942C8.93524 4.49022 8.8254 4.61602 8.82126 4.76109C8.81815 4.84382 8.80364 4.84382 8.85234 4.89709C8.88757 4.95149 8.92487 4.94696 8.99534 4.90502C9.03678 4.87102 9.05025 4.85176 9.06476 4.79622C9.08134 4.70556 8.97461 4.84156 8.96114 4.73729C8.93731 4.64209 9.0057 4.60129 9.06994 4.51062C9.07201 4.46529 9.07201 4.43129 9.04611 4.42902V4.42676ZM10.0854 4.43242C10.0647 4.43696 10.0409 4.46642 10.0067 4.53216C9.98282 4.60242 9.87817 4.70896 9.95485 4.92882C10.0149 5.06822 10.0409 5.29376 10.0129 5.54649C9.96935 5.61789 9.96106 5.64282 9.90407 5.71422C9.82532 5.80829 9.73828 5.78449 9.67404 5.74822C9.61187 5.70289 9.5642 5.68022 9.53623 5.53742C9.54141 5.31076 9.55384 4.93449 9.5155 4.85516C9.45955 4.73276 9.36629 4.77582 9.32692 4.81322C9.13729 5.00589 9.043 5.32662 8.98497 5.58389C8.93316 5.76976 8.87617 5.71536 8.8368 5.64056C8.74043 5.54082 8.73318 4.76789 8.61713 4.89596C8.43061 5.47849 8.72385 6.11656 8.92798 6.05422C9.07305 6.12222 9.16631 5.81622 9.22641 5.48189C9.26785 5.38782 9.29894 5.37649 9.31966 5.42522C9.31448 5.86949 9.35075 5.96922 9.45437 6.10296C9.68647 6.30016 9.87921 6.12789 9.89475 6.11202L10.0761 5.91482C10.1175 5.86949 10.1693 5.86496 10.2263 5.90576C10.2823 5.96242 10.275 6.05649 10.3921 6.12109C10.4937 6.16642 10.7061 6.13242 10.7548 6.03836C10.8221 5.91369 10.8377 5.87062 10.8688 5.82302C10.9164 5.75502 10.9983 5.78562 10.9983 5.80716C10.991 5.84682 10.9434 5.88649 10.9755 5.95449C11.0325 5.99982 11.046 5.97036 11.0791 5.96016C11.1972 5.89896 11.2864 5.61789 11.2864 5.61789C11.2915 5.51362 11.2377 5.52156 11.2035 5.54309C11.1568 5.57369 11.1548 5.58389 11.1102 5.61449C11.0511 5.62356 10.9392 5.66549 10.8843 5.57142C10.8273 5.45809 10.8273 5.30169 10.7838 5.18609C10.7838 5.17929 10.7082 5.00816 10.7776 4.99796C10.8118 5.00476 10.8885 5.02629 10.8999 4.95716C10.9372 4.88916 10.8201 4.69649 10.7403 4.60129C10.6719 4.51856 10.5766 4.50836 10.4843 4.59222C10.4191 4.65796 10.4294 4.73049 10.416 4.79962C10.4004 4.87896 10.4035 4.97756 10.4781 5.08296C10.5424 5.22122 10.6595 5.40029 10.6201 5.65189C10.6201 5.65189 10.5527 5.77202 10.4336 5.75616C10.3818 5.74482 10.3009 5.72216 10.2574 5.37082C10.2263 5.10676 10.2657 4.73616 10.1642 4.56276C10.1403 4.49816 10.1206 4.43469 10.0875 4.43809L10.0854 4.43242ZM9.7559 4.46189C9.72481 4.46529 9.69062 4.50496 9.66264 4.58089C9.63881 4.63982 9.60876 4.94356 9.61394 4.94356C9.59322 5.03422 9.69994 5.07276 9.74865 4.95716C9.82118 4.74182 9.82118 4.65116 9.82532 4.56276C9.81496 4.49476 9.78698 4.46076 9.7559 4.46302V4.46189ZM10.9714 4.48456C10.9403 4.48909 10.9144 4.50949 10.905 4.56162C10.8916 4.68176 10.8988 4.74862 10.9175 4.84949C10.9309 4.91749 11.0211 5.02856 11.0646 5.09429C11.275 5.40369 11.4791 5.71422 11.6739 6.03496C11.705 6.27522 11.7257 6.50869 11.7412 6.74216C11.7744 7.25216 11.7827 7.88682 11.7547 8.42516C11.8418 8.42856 11.9827 8.26989 12.0314 8.03982C12.0625 7.71796 12.021 7.06516 12.0169 6.87476L12.0065 6.60502C12.2345 7.01302 12.4541 7.44369 12.6697 7.91516C12.7495 7.87436 12.7318 7.38816 12.6862 7.32016C12.5122 6.91216 12.2718 6.50869 12.1961 6.35342C12.1682 6.29676 12.0739 6.14149 11.963 5.96129C11.9423 5.70289 11.9195 5.48529 11.905 5.41956C11.8687 5.14756 12.0065 5.45016 11.9879 5.29262C11.9423 5.02062 11.8055 4.83702 11.6438 4.58769C11.592 4.50836 11.592 4.49022 11.5122 4.60809C11.4656 4.72709 11.4656 4.82682 11.4812 4.91976C11.4584 4.88576 11.4325 4.84722 11.3952 4.79736L11.1309 4.55256C11.0947 4.52422 11.0242 4.48116 10.9714 4.48456V4.48456ZM14.5731 4.52649C14.5576 4.52422 14.5421 4.53216 14.5213 4.56276C14.4851 4.59676 14.4467 4.66136 14.4488 4.74409C14.4561 4.88576 14.4799 5.03196 14.4882 5.17476L14.4985 5.23142C14.484 5.21329 14.4716 5.19742 14.4643 5.19062C14.2084 4.89596 14.5814 5.14076 14.4146 4.91522C14.2747 4.74522 14.2333 4.69309 14.1141 4.59109C14.0519 4.55029 14.0167 4.46869 13.997 4.60696C13.9887 4.72822 13.9804 4.86989 13.9867 4.97189C13.9867 5.02856 14.0416 5.13622 14.0882 5.19856C14.2581 5.42862 14.4322 5.67229 14.6063 5.92616C14.6436 6.44409 14.6529 6.91896 14.6892 7.43802C14.6851 7.66016 14.6229 7.95482 14.5649 7.98202C14.5649 7.98202 14.4737 8.03869 14.4136 7.97636C14.369 7.95709 14.1939 7.65562 14.1939 7.65562C14.1038 7.56496 14.0437 7.59102 13.9804 7.65562C13.8043 7.84149 13.7235 8.19056 13.6043 8.43082C13.5732 8.48409 13.4872 8.53056 13.3909 8.42629C13.1453 8.05909 13.2872 7.53662 13.2582 7.67149C13.0406 7.94122 13.136 8.38776 13.1857 8.48409C13.2582 8.64276 13.3162 8.74476 13.4551 8.82069C13.5846 8.92269 13.6831 8.86036 13.739 8.78669C13.8675 8.64162 13.8696 8.26876 13.9297 8.19509C13.9711 8.05909 14.0778 8.08176 14.1297 8.14296C14.1815 8.22229 14.2395 8.27329 14.3131 8.31636C14.4333 8.43196 14.5763 8.45236 14.7172 8.34696C14.8135 8.28802 14.8768 8.21096 14.9327 8.05909C14.9949 7.88229 14.9638 6.95296 14.9503 6.43616L15.2197 6.86229C15.257 7.31562 15.2746 7.76329 15.2612 8.19169C15.2529 8.27669 15.5337 7.93782 15.5306 7.77689C15.5306 7.63749 15.5327 7.50942 15.5306 7.39156C15.6684 7.62956 15.8 7.87096 15.9243 8.11689C16.0021 8.07156 15.9761 7.59216 15.9274 7.52756C15.7969 7.28729 15.629 7.02889 15.4995 6.82716C15.4736 6.57442 15.4394 6.27636 15.4228 6.18456C15.399 6.04176 15.3741 5.82756 15.3368 5.65869C15.3265 5.59409 15.2954 5.38329 15.3057 5.36402C15.3202 5.31529 15.3783 5.36402 15.4062 5.30962C15.4477 5.25862 15.2591 4.72029 15.1627 4.56842C15.1285 4.50042 15.0653 4.52309 14.9887 4.63642C14.9161 4.70896 14.9431 4.87669 14.97 5.03649C15.0405 5.44449 15.1047 5.85702 15.1545 6.27182C15.0612 6.11882 14.9472 5.93522 14.8353 5.75956L14.8208 5.68022C14.8208 5.67116 14.8063 5.34589 14.7928 5.26882C14.7897 5.23709 14.7825 5.22802 14.8135 5.23256C14.8446 5.26202 14.8488 5.26316 14.8685 5.27336C14.9016 5.27789 14.9306 5.21896 14.9099 5.16342L14.6094 4.55822C14.5991 4.54349 14.5845 4.52989 14.568 4.52762L14.5731 4.52649ZM5.27852 4.53782C5.22153 4.53556 5.16143 4.57182 5.18526 4.64549C5.17076 4.68516 5.29303 4.81889 5.31479 4.89256C5.3324 4.94582 5.29406 5.11356 5.33551 5.13056C5.37178 5.14756 5.42255 5.01269 5.4412 4.88916C5.45156 4.82116 5.44431 4.58769 5.29924 4.54009C5.29199 4.53782 5.28474 4.53782 5.27645 4.53669L5.27852 4.53782ZM15.8684 4.53782C15.8549 4.54009 15.8394 4.56049 15.8166 4.61716C15.7596 4.71916 15.7399 4.90049 15.7627 5.05916C15.8974 6.06782 16.001 7.04476 16.0217 7.93782C16.0093 8.02396 16.0052 8.06929 15.9699 8.17582C15.8891 8.28916 15.8 8.42969 15.7161 8.49769C15.6332 8.56569 15.4549 8.63142 15.3969 8.68129C15.2104 8.79689 15.2104 8.93062 15.3596 8.93629C15.6166 8.90229 15.9212 8.87962 16.1305 8.53396C16.1865 8.43762 16.2528 8.17469 16.2549 8.01262C16.2756 7.07196 16.2445 6.14829 16.115 5.46716C16.1067 5.39916 16.0798 5.24842 16.0901 5.22916C16.1057 5.18156 16.1896 5.23256 16.2197 5.17929C16.2642 5.12942 16.0021 4.76336 15.9109 4.60696C15.8922 4.56842 15.8798 4.53556 15.8653 4.53896L15.8684 4.53782ZM13.1712 4.55369C13.1608 4.55596 13.1463 4.57409 13.1173 4.61602C13.0448 4.87216 13.0199 5.08069 13.0479 5.24162C13.2344 6.29562 13.4209 7.25329 13.3919 8.25629C13.4789 8.25629 13.5805 8.03756 13.624 7.81996C13.6478 7.51962 13.6074 7.33716 13.6012 7.16262C13.5939 6.98582 13.4188 5.55782 13.3836 5.42522C13.3401 5.17362 13.5535 5.39122 13.5307 5.24616C13.4561 5.06029 13.2717 4.79282 13.2157 4.63076C13.195 4.58769 13.1909 4.54802 13.1743 4.55142L13.1712 4.55369ZM6.60795 4.57409C6.58723 4.57862 6.5634 4.59902 6.55614 4.63076C6.55096 4.65342 6.56443 4.69082 6.54578 4.70216C6.53542 4.71349 6.49604 4.70556 6.49812 4.64549C6.49812 4.62509 6.48465 4.60469 6.47739 4.59222C6.4691 4.58769 6.46392 4.58656 6.44942 4.58656C6.4318 4.58656 6.4318 4.59222 6.42248 4.60922C6.41833 4.62509 6.41211 4.64096 6.41211 4.65909C6.41004 4.68176 6.40175 4.68742 6.38828 4.69082C6.3717 4.69082 6.37481 4.69309 6.36238 4.68289C6.35201 4.67496 6.34372 4.67156 6.34372 4.65569C6.34372 4.63869 6.33958 4.61036 6.33543 4.60129C6.32818 4.58996 6.31678 4.58542 6.30435 4.58202C6.23596 4.58202 6.23182 4.67042 6.23492 4.70216C6.22974 4.70896 6.22767 4.86082 6.32093 4.90389C6.44527 4.96962 6.68152 4.94129 6.67323 4.72029C6.67323 4.70102 6.66805 4.63529 6.66598 4.61829C6.65355 4.58429 6.62971 4.57296 6.60692 4.57636L6.60795 4.57409ZM8.2928 4.57636C8.24928 4.57862 8.2099 4.59222 8.17882 4.61036C8.09592 4.69762 8.0752 4.83702 8.14151 4.92429C8.20369 4.95829 8.26897 5.02629 8.22648 5.06596C8.04619 5.27562 7.57679 5.62809 7.55296 5.69269V5.69949H7.5571V5.70176C7.58094 5.71876 7.87521 5.71876 7.90734 5.70176H7.90941C8.01095 5.65982 8.48967 5.06142 8.48967 5.06142C8.46481 5.03876 8.44201 5.02062 8.41714 4.99682C8.3902 4.97189 8.39331 4.94696 8.41714 4.92202C8.53527 4.84722 8.49796 4.68062 8.43579 4.60469C8.38398 4.57976 8.33632 4.57069 8.2928 4.57409V4.57636ZM12.6966 4.57636C12.6842 4.57976 12.6686 4.59902 12.6448 4.65569C12.5878 4.75769 12.5495 4.93336 12.5546 5.09769C12.6769 6.02702 12.7142 6.83962 12.795 7.76896C12.8013 7.85962 12.7888 7.98882 12.7349 8.04096C12.5319 8.27216 12.2407 8.55549 11.9236 8.68696C11.8894 8.72889 12.0086 8.90682 12.1619 8.90682C12.4189 8.87282 12.6448 8.71642 12.8562 8.30049C12.9111 8.20416 13.0095 7.99676 13.0116 7.83582C13.0323 6.89289 12.9702 6.15849 12.8396 5.47849C12.8323 5.41049 12.8375 5.33116 12.8479 5.31302C12.8645 5.29036 12.9204 5.31302 12.9515 5.25976C12.995 5.20989 12.8334 4.80302 12.7422 4.64776C12.7235 4.60809 12.7132 4.57636 12.6966 4.57749V4.57636ZM5.87433 4.60696C5.8391 4.61149 5.80594 4.64096 5.78936 4.68629C5.78418 4.83362 5.78315 4.98096 5.79972 5.11922C5.8619 5.36062 5.87951 5.57256 5.90956 5.81849C5.91992 6.14942 5.73548 5.96129 5.74377 5.79809C5.78522 5.58502 5.77486 5.25069 5.73755 5.16569C5.70647 5.08069 5.67331 5.06029 5.60078 5.07502C5.54379 5.07049 5.39561 5.24502 5.35416 5.53969C5.35416 5.53969 5.31893 5.68929 5.30443 5.82302C5.2837 5.97376 5.19252 6.08142 5.12827 5.80262C5.07336 5.59862 5.0402 5.09996 4.94798 5.21556C4.92104 5.60542 4.88995 6.29222 5.19252 6.36249C5.55933 6.40102 5.35624 5.68476 5.48887 5.55442C5.51477 5.49209 5.5614 5.49096 5.56451 5.57142V6.18002C5.56036 6.37722 5.67849 6.43616 5.77175 6.47696C5.86811 6.46902 5.93132 6.47242 5.96862 6.57442L6.01525 7.62842C6.01525 7.62842 6.237 7.69642 6.24736 7.03569C6.25772 6.64696 6.17483 6.32169 6.22353 6.24576C6.2256 6.17096 6.31264 6.16642 6.37274 6.20382C6.4691 6.27749 6.51159 6.36816 6.6608 6.33189C6.88876 6.26389 7.02347 6.14376 7.02657 5.95336C7.01621 5.77202 6.99549 5.59069 6.92296 5.40936C6.93332 5.37762 6.88151 5.29262 6.89187 5.25976C6.93124 5.32776 6.99342 5.32322 7.00585 5.25976C6.96855 5.12036 6.90845 4.98776 6.81105 4.93109C6.73126 4.85176 6.61417 4.86876 6.57065 5.02969C6.54993 5.21556 6.63282 5.43542 6.75716 5.61562C6.78203 5.68589 6.81934 5.80262 6.80276 5.90802C6.73748 5.94882 6.6722 5.93069 6.61624 5.86836C6.61624 5.86836 6.43698 5.72102 6.43698 5.68702C6.48568 5.35269 6.44734 5.31302 6.42144 5.22236C6.40279 5.09316 6.34683 5.05236 6.30228 4.96396C6.25668 4.91069 6.19555 4.91069 6.16757 4.96396C6.08675 5.11469 6.12405 5.43996 6.18208 5.58389C6.22353 5.71762 6.28777 5.80149 6.25772 5.80149C6.23285 5.87516 6.18104 5.85816 6.14374 5.77089C6.09193 5.58956 6.0795 5.32209 6.0795 5.20082C6.06395 5.05122 6.04634 4.73049 5.95515 4.64889C5.93132 4.61262 5.90334 4.60016 5.87537 4.60356L5.87433 4.60696ZM7.16128 4.60696C7.14366 4.61149 7.12294 4.62282 7.09911 4.62962C7.02139 4.65569 6.94886 4.72936 6.97166 4.87216C7.06491 5.48416 7.12398 5.95222 7.2162 6.56422C7.22967 6.63676 7.17475 6.73082 7.10429 6.72289C6.98409 6.63222 6.95404 6.45089 6.74888 6.45996C6.59966 6.45996 6.42973 6.63902 6.409 6.80902C6.38414 6.94502 6.37585 7.09236 6.409 7.21022C6.51262 7.34622 6.63904 7.33262 6.74888 7.30089C6.83902 7.26122 6.91467 7.16489 6.94575 7.18756C6.96648 7.22496 6.94368 7.54342 6.52091 7.78822C6.25979 7.91742 6.05255 7.94689 5.94065 7.71569C5.87226 7.57062 5.94686 7.01756 5.77693 7.14449C5.27334 8.56342 6.95508 8.76062 7.14263 7.20342C7.15506 7.15809 7.19133 7.11502 7.21827 7.12636C7.22863 7.13202 7.23899 7.14902 7.24314 7.18076C7.20376 8.59062 5.94168 8.68809 5.72823 8.24382C5.67435 8.13956 5.6588 7.90609 5.65362 7.76782C5.64326 7.68282 5.62461 7.63409 5.60181 7.61482C5.55 7.57289 5.48161 7.68282 5.46711 7.87209C5.44638 8.02509 5.45156 8.06702 5.45156 8.21436C5.51995 9.32842 7.14366 8.84902 7.40789 7.93102C7.53845 7.45502 7.40478 7.09576 7.44934 7.05156L7.45245 7.04929H7.45556L7.46074 7.04702C7.62238 7.23742 7.84827 7.06969 7.89801 7.00509C7.91873 6.97109 7.97262 6.94842 8.00992 6.99376C8.13426 7.09122 8.35601 7.04476 8.4016 6.86909C8.42854 6.69909 8.45134 6.52456 8.45652 6.34209C8.37362 6.37042 8.30731 6.39082 8.28036 6.42142C8.27415 6.42936 8.27 6.43842 8.26793 6.44749L8.24721 6.59822C8.24721 6.60389 8.24513 6.60729 8.24306 6.60956C8.23995 6.61749 8.2327 6.62316 8.22855 6.62656C8.19954 6.64356 8.14877 6.63449 8.14566 6.58802C8.10732 6.39536 7.94671 6.37042 7.84931 6.67076C7.78403 6.72742 7.6628 6.73876 7.65243 6.65262C7.66798 6.45089 7.59337 6.42369 7.44519 6.51889L7.3022 5.34022C7.36437 5.33682 7.42033 5.38556 7.47835 5.30849C7.41618 5.09996 7.28666 4.67609 7.21309 4.63529H7.21102L7.20065 4.62396C7.20065 4.62169 7.19755 4.62056 7.19547 4.61942L7.19133 4.61262C7.18718 4.61262 7.18304 4.61036 7.18097 4.60922C7.17371 4.60696 7.1675 4.60696 7.16024 4.60696H7.16128ZM12.1785 4.61149C12.1143 4.60922 12.0438 4.65342 12.0707 4.74182C12.0542 4.79056 12.2086 4.95376 12.2334 5.04216C12.278 5.17816 12.1992 5.31076 12.2459 5.33002C12.2894 5.35042 12.3495 5.18836 12.3702 5.03762C12.3971 4.91522 12.3184 4.66589 12.2044 4.61489L12.1785 4.61262V4.61149ZM8.26897 4.75996C8.29798 4.75769 8.33321 4.78716 8.35186 4.82796C8.36948 4.87329 8.36015 4.91522 8.33114 4.92316C8.30005 4.93109 8.26068 4.90276 8.24203 4.85742C8.22337 4.81209 8.23166 4.77016 8.26275 4.76222H8.26897V4.75996ZM15.5192 4.96622C15.4601 4.96396 15.3948 5.01156 15.4218 5.10789C15.4073 5.16002 15.5461 5.33682 15.57 5.43429C15.5907 5.50229 15.5389 5.72442 15.5803 5.74482C15.6197 5.76749 15.6736 5.59069 15.6943 5.42749C15.7067 5.33682 15.6466 5.02516 15.5441 4.96962C15.5368 4.96736 15.5285 4.96509 15.5202 4.96509L15.5192 4.96622ZM11.5091 5.07502C11.5164 5.10109 11.5216 5.12716 11.5247 5.15436C11.5371 5.21102 11.5475 5.26769 11.5578 5.32662C11.5122 5.25636 11.4749 5.19969 11.4573 5.17929C11.3537 5.04329 11.4594 5.09089 11.5091 5.07502V5.07502ZM12.4345 5.57142C12.4117 5.57596 12.3899 5.59749 12.3826 5.63149C12.3764 5.65189 12.3909 5.68816 12.3723 5.69949C12.3619 5.71082 12.3205 5.70402 12.3236 5.64282C12.3236 5.62242 12.3101 5.60089 12.3029 5.58956C12.2946 5.58389 12.2894 5.58162 12.2749 5.58162C12.2573 5.58162 12.2573 5.58729 12.2479 5.60429C12.2438 5.62016 12.2376 5.63602 12.2376 5.65529C12.2376 5.67796 12.2293 5.68476 12.2148 5.68929C12.1982 5.68929 12.2013 5.68929 12.1878 5.68136C12.1795 5.67002 12.1702 5.66776 12.1702 5.65189C12.1702 5.63489 12.1671 5.60882 12.1619 5.59749C12.1547 5.58616 12.1443 5.58276 12.1308 5.57822C12.0635 5.57822 12.0583 5.66436 12.0625 5.69609C12.0583 5.70289 12.0552 5.85702 12.1485 5.90009C12.2749 5.96469 12.5111 5.93409 12.5008 5.71422C12.5008 5.69496 12.4956 5.62922 12.4945 5.61222C12.4811 5.57822 12.4572 5.56689 12.4355 5.57029L12.4345 5.57142ZM8.21716 5.61676C8.20265 5.61676 8.18193 5.62129 8.15809 5.63716C8.04722 5.70289 8.00474 5.89782 8.0752 6.01116C8.13737 6.11316 8.24099 6.07576 8.25446 6.07576C8.36326 6.09162 8.4275 5.85362 8.4275 5.85362C8.4275 5.85362 8.43061 5.78562 8.30316 5.91256C8.24721 5.92389 8.24099 5.90122 8.22648 5.86722C8.21405 5.80716 8.21612 5.74256 8.24203 5.68249C8.25446 5.64509 8.24203 5.62129 8.21716 5.61902V5.61676ZM14.1784 5.64736C14.1162 5.64396 14.0509 5.68816 14.0333 5.77996C14.0333 5.83436 14.0561 5.86382 14.0519 5.91369C14.0468 5.94202 14.0209 5.95902 13.9566 5.92729C13.967 5.91596 13.9152 5.83889 13.9152 5.83889C13.8665 5.80489 13.8012 5.83889 13.7577 5.87062C13.7338 5.91822 13.7162 5.99869 13.7432 6.08029C13.8136 6.22422 14.0571 6.46902 14.1732 6.47129C14.1753 6.34209 14.1866 6.16982 14.1939 6.06329C14.196 6.02249 14.2043 5.97829 14.2405 5.96809C14.2758 5.95676 14.3369 6.00662 14.3369 5.96469C14.3307 5.88309 14.3162 5.76069 14.2747 5.70402C14.2519 5.67002 14.2157 5.64962 14.1794 5.64736H14.1784ZM9.24299 6.09729L9.23988 6.10069C9.23988 6.10069 9.2378 6.10069 9.23677 6.10296C9.22433 6.11429 9.20983 6.13696 9.17771 6.15962C9.12279 6.22762 9.11346 6.27636 9.11553 6.41236C9.11968 6.42709 9.21915 6.73309 9.30516 6.94729C9.36318 7.17056 9.41603 7.42669 9.37769 7.66809C9.24299 7.98769 8.97358 8.27442 8.71142 8.43082C8.57671 8.47616 8.46273 8.46029 8.43165 8.42856C8.35497 8.37189 8.35393 8.26989 8.35912 8.25402V8.25062C8.57879 8.08289 8.83058 7.94689 9.02746 7.49469C9.08548 7.32129 9.10414 7.21702 9.04611 6.95069C9.02331 6.84869 8.9943 6.76936 8.93213 6.69682H8.9342C8.9715 6.67756 9.06891 6.75576 9.08445 6.70816C9.06062 6.57896 8.98083 6.40782 8.89275 6.31942C8.814 6.24009 8.72696 6.23216 8.6565 6.30356C8.57568 6.35342 8.5591 6.53022 8.59744 6.68436C8.64096 6.79996 8.75805 6.82036 8.84094 7.05496C8.84302 7.07082 8.86892 7.23062 8.82747 7.29636C8.79224 7.41196 8.35601 7.78822 8.32492 7.81089L8.32181 7.81316L8.31974 7.81542H8.31767H8.31559V7.81202C8.31352 7.80296 8.31559 7.77802 8.31559 7.74062C8.31249 7.67036 8.33943 7.51056 8.33632 7.48222V7.47996C8.19125 7.58196 8.14255 7.89362 8.11665 7.98656C7.75087 8.26196 7.33639 8.46709 7.09703 8.74589C6.97269 8.96122 7.955 8.50336 8.06898 8.44782L8.07209 8.45122C8.09489 8.47729 8.09592 8.56796 8.1612 8.65069C8.26482 8.80142 8.48035 8.89436 8.69173 8.83656C9.04611 8.69716 9.25127 8.43309 9.45851 8.13956C9.48753 8.09422 9.53415 8.05569 9.57767 8.09196C9.71963 8.44102 10.132 8.69036 10.6636 8.71529C10.7879 8.55209 10.7289 8.47162 10.6791 8.43762C10.6636 8.42629 10.4149 8.31976 10.3755 8.21436C10.3517 8.11689 10.4108 8.02962 10.5289 7.96502C10.8708 7.91969 11.2066 7.86869 11.5319 7.75422C11.535 7.63409 11.5993 7.45616 11.6428 7.37796C11.6739 7.32469 11.6915 7.31902 11.6988 7.31222V7.30996H11.7008V7.30656V7.29522L11.6449 7.25896L10.5538 7.25442C10.5403 7.24876 10.531 7.24309 10.5248 7.23742L10.5227 7.23402C10.5227 7.23402 10.5206 7.23402 10.5206 7.23176C10.5206 7.22949 10.5185 7.22949 10.5185 7.22949V7.23062V7.22836V7.22609V7.22382L10.5206 7.22042C10.5258 7.21362 10.5393 7.20569 10.5548 7.19776C10.8159 7.16036 11.2781 7.07762 11.3091 6.59142C11.304 6.33756 11.2097 6.17209 10.9258 6.12676C10.7164 6.14376 10.5672 6.36476 10.5911 6.60729C10.5807 6.67189 10.6118 6.79996 10.5496 6.81469C10.1497 6.85549 9.71238 7.12976 9.69787 7.32696H9.6958H9.69373H9.69166C9.69166 7.32922 9.68958 7.32922 9.68855 7.32922H9.6844H9.68233H9.67819C9.65228 7.32016 9.61912 7.27256 9.6243 7.20796C9.60876 6.86796 9.50721 6.48262 9.34971 6.18796C9.29272 6.12562 9.26682 6.10069 9.25231 6.09729H9.2492H9.24609H9.24402H9.24299ZM10.2875 6.27636C10.2667 6.28089 10.2429 6.30129 10.2357 6.33529C10.2305 6.35796 10.246 6.39422 10.2274 6.40556C10.217 6.41689 10.1756 6.41009 10.1776 6.34889C10.1776 6.32962 10.1642 6.30809 10.1569 6.29562C10.1486 6.28996 10.1434 6.28882 10.13 6.28882C10.1123 6.28882 10.1113 6.29336 10.102 6.30922C10.0968 6.32509 10.0916 6.34322 10.0916 6.36022C10.0896 6.38289 10.0813 6.38969 10.0678 6.39196C10.0512 6.39196 10.0554 6.39536 10.0419 6.38629C10.0336 6.37722 10.0232 6.37269 10.0232 6.35682C10.0232 6.33982 10.0201 6.31149 10.016 6.30016C10.0087 6.29222 9.99733 6.28882 9.9849 6.28429C9.91547 6.28429 9.91236 6.36929 9.91547 6.40216C9.91029 6.40782 9.90718 6.56082 10.0004 6.60389C10.1248 6.66962 10.4253 6.63109 10.3527 6.41916C10.3527 6.39989 10.3476 6.33416 10.3465 6.31716C10.3331 6.28316 10.3092 6.27182 10.2864 6.27522L10.2875 6.27636ZM14.4996 6.46562H14.4892C14.4892 6.46562 13.9069 6.91896 13.8934 6.93482C13.8354 6.99149 13.8644 7.18756 13.8934 7.16489C13.9349 7.18189 14.5203 6.74782 14.5089 6.69682C14.5348 6.69909 14.5472 6.47356 14.4985 6.46449L14.4996 6.46562ZM10.8377 6.53362C10.8605 6.53022 10.8916 6.53929 10.9206 6.55629C10.9651 6.58576 10.9931 6.62656 10.9879 6.65829V6.66282C10.9859 6.66282 10.9859 6.66282 10.9859 6.66509V6.66736C10.9859 6.66736 10.9838 6.66736 10.9838 6.66962C10.9838 6.67189 10.9807 6.67416 10.9786 6.67642C10.9579 6.69909 10.9102 6.69456 10.8646 6.66509C10.8211 6.63902 10.7952 6.59709 10.7973 6.56762V6.56422L10.8025 6.55289C10.8025 6.55289 10.8025 6.55062 10.8045 6.54949L10.8097 6.54269C10.817 6.53702 10.8263 6.53136 10.8377 6.53136V6.53362ZM5.7417 6.64696C5.4412 6.65376 4.99875 7.07989 4.98735 7.31562L5.94065 6.81696C5.88884 6.73082 5.93754 6.65376 5.7417 6.64696V6.64696ZM6.71883 6.79429C6.74784 6.79656 6.77892 6.81242 6.7955 6.85776C6.81001 6.89969 6.7955 6.94276 6.77789 6.96429V6.96769C6.76338 6.98582 6.71986 6.97902 6.68774 6.97902C6.6494 6.97676 6.63075 6.96996 6.60795 6.93596C6.59552 6.89629 6.62868 6.85889 6.64422 6.83169L6.65147 6.82036C6.66184 6.80902 6.68256 6.79996 6.70328 6.79769L6.71675 6.79542L6.71883 6.79429ZM14.3866 6.92689C14.3317 6.93369 14.2809 6.98922 14.3037 7.07762C14.2892 7.12976 14.3763 7.31222 14.4001 7.40856C14.4208 7.47656 14.3732 7.67262 14.4156 7.69189C14.455 7.71456 14.5576 7.57856 14.5545 7.40402C14.5649 7.31336 14.5255 6.98469 14.4229 6.93029C14.4105 6.92689 14.398 6.92576 14.3856 6.92689H14.3866ZM7.87521 7.24876C7.82755 7.25216 7.78507 7.27936 7.80475 7.35302C7.80164 7.40516 7.93946 7.46976 7.94671 7.59102C7.96536 7.64316 7.91563 7.80636 7.95707 7.81996C7.99438 7.83696 8.04619 7.70662 8.06587 7.58876C8.07623 7.52302 8.01821 7.29409 7.92081 7.25216C7.90526 7.24762 7.88972 7.24649 7.87418 7.24762L7.87521 7.24876ZM9.82325 7.53889H9.83569C9.95796 7.57516 10.1362 7.57969 10.2916 7.59556C10.4191 7.60689 10.4812 7.71342 10.3641 7.75989C10.246 7.80296 10.1331 7.83922 10.1331 8.02282C10.1476 8.11349 10.1434 8.16109 10.131 8.18149C10.131 8.18489 10.1279 8.18716 10.1269 8.18829C10.1269 8.18829 10.1269 8.19056 10.1248 8.19056V8.19282H10.1217L10.1144 8.19622H10.1092C10.0813 8.20189 10.0409 8.17356 10.0108 8.15542C9.93827 8.09876 9.73621 7.96276 9.7072 7.66809C9.70305 7.60009 9.74865 7.54342 9.82118 7.53776L9.82325 7.53889ZM5.06299 7.76556C5.05574 7.76556 5.04227 7.79049 5.02155 7.81882C4.84125 8.13049 4.82467 8.59629 4.92414 8.73682C4.97595 8.80142 5.06299 8.83089 5.12724 8.81049C5.24122 8.75722 5.28992 8.50676 5.26194 8.41609C5.22568 8.35149 5.19563 8.34129 5.15832 8.39569C5.07854 8.57136 5.04434 8.45009 5.03916 8.35036C5.02673 8.16562 5.04331 7.99336 5.06196 7.85736C5.07232 7.78936 5.07232 7.76329 5.06196 7.76329L5.06299 7.76556ZM11.1734 8.17582C11.1599 8.17582 11.1465 8.17809 11.132 8.18716C11.1289 8.18716 11.0035 8.27782 10.9631 8.34356C10.9382 8.36396 10.9423 8.38096 10.9486 8.41722C10.9672 8.46596 11.0004 8.45122 11.0397 8.42856C11.0915 8.41949 11.1154 8.45689 11.1123 8.52376C11.0884 8.60876 11.1226 8.63936 11.1226 8.64502C11.1226 8.64956 11.1713 8.69602 11.2294 8.65976C11.3506 8.60876 11.4262 8.55776 11.5972 8.51809C11.6418 8.51809 11.6387 8.38662 11.5682 8.38209C11.4749 8.38662 11.392 8.39342 11.2988 8.47276C11.2418 8.48636 11.2325 8.44782 11.219 8.41382C11.2045 8.32996 11.2522 8.27102 11.2418 8.20756C11.2439 8.21096 11.2128 8.18036 11.1724 8.17809L11.1734 8.17582ZM15.0861 8.33449L15.0032 8.34356C14.9659 8.35149 14.9534 8.36962 14.9462 8.41949C14.9493 8.49316 14.9907 8.48976 15.0343 8.51922C15.0591 8.55322 15.0757 8.58496 15.0322 8.64389C14.9907 8.68356 14.9628 8.70622 14.9213 8.74589C14.9037 8.78216 14.8902 8.83656 14.9503 8.85469C15.0591 8.88869 15.3109 8.70962 15.3109 8.70736C15.3524 8.67336 15.3379 8.60876 15.3347 8.60876C15.3099 8.57929 15.256 8.59742 15.2208 8.59176C15.2032 8.59176 15.1482 8.58269 15.1731 8.52829C15.1959 8.49429 15.2042 8.47502 15.2197 8.43309C15.2353 8.39229 15.2197 8.36509 15.1596 8.34242C15.1285 8.33562 15.1078 8.33336 15.084 8.33449H15.0861ZM13.5805 12.7092C13.8602 12.7239 14.1214 12.7126 14.3991 12.7273C14.4447 12.7681 14.4229 12.8633 14.3939 12.8792L14.3887 12.8814H14.3856H14.3815L14.1473 12.8746V12.8599C14.1245 12.7896 13.969 12.7942 13.9317 12.8486V12.852C13.9297 12.852 13.9286 12.8554 13.9286 12.8565L13.9266 12.8622V12.8758C13.8022 12.8928 13.6934 12.8712 13.5712 12.8667C13.5349 12.818 13.5401 12.7307 13.5815 12.708L13.5805 12.7092Z" fill="white"/>
</svg>
