<svg width="24" height="24" viewBox="0 0 24 24" fill="none" xmlns="http://www.w3.org/2000/svg">
<path fill-rule="evenodd" clip-rule="evenodd" d="M3.125 11.997C3.12508 11.4724 3.39365 11.0799 3.68652 10.7733C3.95931 10.4878 4.38846 10.1496 4.8252 9.80557L5.83887 9.00674C6.58127 8.42185 7.20251 7.93186 7.71973 7.63174C8.23993 7.32991 8.87982 7.0853 9.54297 7.37881C10.2242 7.68042 10.4469 8.33214 10.5371 8.91885C10.6197 9.45639 10.6237 10.166 10.624 10.9999L19.875 10.9999C20.4273 10.9999 20.875 11.4476 20.875 11.9999C20.875 12.5522 20.4273 12.9999 19.875 12.9999L10.624 12.9999C10.6237 13.8323 10.6196 14.5403 10.5371 15.0771C10.4469 15.6638 10.2243 16.3164 9.54297 16.6181C8.87989 16.9115 8.23989 16.666 7.71973 16.3642C7.20252 16.064 6.58121 15.574 5.83887 14.9892L4.8252 14.1913C4.38859 13.8474 3.95932 13.509 3.68652 13.2235C3.3936 12.9169 3.125 12.5217 3.125 11.997Z" fill="#333333"/>
</svg>
