<svg width="12" height="11" viewBox="0 0 12 11" fill="none" xmlns="http://www.w3.org/2000/svg">
<path d="M8.66699 9.33301C9.03503 9.33318 9.33301 9.63192 9.33301 10C9.33283 10.3679 9.03492 10.6658 8.66699 10.666H0.666992C0.298911 10.666 0.00017582 10.368 0 10C3.21882e-08 9.63181 0.298802 9.33301 0.666992 9.33301H8.66699ZM11.3359 9.33301C11.7025 9.33301 12 9.63181 12 10C11.9998 10.368 11.7024 10.666 11.3359 10.666H11.3301C10.9638 10.6659 10.6672 10.3679 10.667 10C10.667 9.6319 10.9637 9.33316 11.3301 9.33301H11.3359ZM8.66699 4.66602C9.03503 4.66619 9.33301 4.96493 9.33301 5.33301C9.33301 5.70109 9.03503 5.99982 8.66699 6H0.666992C0.298802 6 -3.21882e-08 5.7012 0 5.33301C2.57677e-07 4.96482 0.298802 4.66602 0.666992 4.66602H8.66699ZM11.3359 4.66602C11.7025 4.66602 12 4.96482 12 5.33301C12 5.7012 11.7025 6 11.3359 6H11.3301C10.9637 5.99985 10.667 5.70111 10.667 5.33301C10.667 4.96491 10.9637 4.66616 11.3301 4.66602H11.3359ZM8.66699 0C9.03492 0.000176205 9.33283 0.298085 9.33301 0.666016C9.33301 1.0341 9.03503 1.33283 8.66699 1.33301H0.666992C0.298802 1.33301 -3.21882e-08 1.03421 0 0.666016C0.000176077 0.297976 0.298911 -3.21787e-08 0.666992 0H8.66699ZM11.3359 0C11.7024 0 11.9998 0.297976 12 0.666016C12 1.03421 11.7025 1.33301 11.3359 1.33301H11.3301C10.9637 1.33286 10.667 1.03411 10.667 0.666016C10.6672 0.298068 10.9638 0.000149248 11.3301 0H11.3359Z" fill="white"/>
</svg>
