<svg width="16" height="16" viewBox="0 0 16 16" fill="none" xmlns="http://www.w3.org/2000/svg">
<path d="M7.01086 1.36196C7.13051 1.51764 7.14797 1.72895 7.05548 1.90216C6.66618 2.63125 6.44528 3.46403 6.44528 4.34988C6.44528 7.22442 8.77555 9.5547 11.6501 9.5547C12.536 9.5547 13.3687 9.3338 14.0978 8.9445C14.271 8.85201 14.4823 8.86947 14.638 8.98912C14.7937 9.10878 14.8649 9.30848 14.8201 9.49965C14.1037 12.5566 11.3606 14.8333 8.08458 14.8333C4.26392 14.8333 1.16666 11.7361 1.16666 7.91539C1.16666 4.63935 3.44337 1.89628 6.50033 1.17984C6.6915 1.13503 6.8912 1.20627 7.01086 1.36196Z" fill="#666666"/>
</svg>
