<svg width="21" height="21" viewBox="0 0 21 21" fill="none" xmlns="http://www.w3.org/2000/svg">
<path d="M18.6989 15.7675L18.6114 16.8875C18.4802 18.2262 18.3752 19.25 16.0039 19.25H4.99641C2.62516 19.25 2.52016 18.2262 2.38891 16.8875L2.03891 12.5125C1.96891 11.7863 2.19641 11.1125 2.60766 10.5962C2.61641 10.5875 2.61641 10.5875 2.62516 10.5788C3.10641 9.9925 3.83266 9.625 4.64641 9.625H16.3539C17.1677 9.625 17.8852 9.9925 18.3577 10.5612C18.3664 10.57 18.3752 10.5788 18.3752 10.5875C18.8039 11.1038 19.0402 11.7775 18.9614 12.5125" stroke="#555555" stroke-width="1.5" stroke-miterlimit="10" stroke-linecap="round" stroke-linejoin="round"/>
<path d="M3.0625 10.0014V5.49512C3.0625 2.52012 3.80625 1.77637 6.78125 1.77637H7.8925C9.00375 1.77637 9.2575 2.10887 9.6775 2.66887L10.7887 4.15637C11.0687 4.52387 11.235 4.75137 11.9787 4.75137H14.21C17.185 4.75137 17.9287 5.49512 17.9287 8.47012V10.0364" stroke="#555555" stroke-width="1.5" stroke-miterlimit="10" stroke-linecap="round" stroke-linejoin="round"/>
<path d="M8.25098 14.875H12.7485" stroke="#555555" stroke-width="1.5" stroke-miterlimit="10" stroke-linecap="round" stroke-linejoin="round"/>
</svg>
