<svg width="22" height="22" viewBox="0 0 22 22" fill="none" xmlns="http://www.w3.org/2000/svg">
<path d="M10.75 0C16.6871 0 21.5 4.81294 21.5 10.75C21.5 16.6871 16.6871 21.5 10.75 21.5C4.81294 21.5 0 16.6871 0 10.75C0 4.81294 4.81294 0 10.75 0ZM15.7891 15.2305C13.1216 12.3505 8.32283 12.4987 5.71191 15.2256L5.52441 15.4131C5.37923 15.5583 5.29964 15.7567 5.30469 15.9619C5.30985 16.1673 5.39938 16.3622 5.55176 16.5C6.9258 17.7425 8.74937 18.5 10.748 18.5C12.7467 18.5 14.5703 17.7424 15.9443 16.5C16.0967 16.3622 16.1862 16.1673 16.1914 15.9619C16.1965 15.7567 16.1169 15.5583 15.9717 15.4131L15.7891 15.2305ZM10.7393 5C8.94357 5.00023 7.48633 6.45421 7.48633 8.25C7.48633 10.0458 8.94357 11.4998 10.7393 11.5C12.5351 11.5 13.9932 10.0459 13.9932 8.25C13.9932 6.45407 12.5351 5 10.7393 5Z" fill="#CCCCCC"/>
</svg>
