<svg width="16" height="16" viewBox="0 0 16 16" fill="none" xmlns="http://www.w3.org/2000/svg">
<path d="M10.5368 3.60474C10.3185 3.30828 9.90113 3.24495 9.60466 3.46329C9.37439 3.63289 9.1555 3.80252 8.96486 3.9513C8.58428 4.24831 8.07459 4.65719 7.56295 5.10143C7.05462 5.54278 6.52912 6.03214 6.12545 6.489C5.92429 6.71667 5.73929 6.95197 5.60097 7.18142C5.47368 7.39256 5.33338 7.68269 5.33337 8.00011C5.33338 8.31753 5.47368 8.60768 5.60097 8.81883C5.73929 9.04828 5.92429 9.28358 6.12545 9.51124C6.52912 9.9681 7.05462 10.4575 7.56295 10.8988C8.07459 11.3431 8.58428 11.7519 8.96486 12.0489C9.1555 12.1977 9.37439 12.3674 9.60466 12.537C9.90113 12.7553 10.3185 12.692 10.5368 12.3955C10.6246 12.2763 10.6668 12.1376 10.6667 12.0002L10.6667 8.00012V4.00008C10.6668 3.86262 10.6246 3.72391 10.5368 3.60474Z" fill="#CCCCCC"/>
</svg>
