<svg width="16" height="16" viewBox="0 0 16 16" fill="none" xmlns="http://www.w3.org/2000/svg">
<path d="M7.49995 12.8917C7.74372 12.6158 8.16542 12.5903 8.44136 12.8341C8.64379 13.013 8.89808 13.3371 8.97651 13.7628C9.06544 14.2459 8.90723 14.7545 8.44136 15.1661C8.16543 15.4099 7.74373 15.3844 7.49995 15.1085C7.2562 14.8326 7.28267 14.4109 7.55854 14.1671C7.63892 14.0961 7.65869 14.0501 7.66304 14.0382C7.66676 14.0279 7.66781 14.0193 7.66499 14.004C7.66128 13.984 7.65062 13.9528 7.6269 13.9151C7.60289 13.8769 7.57525 13.8479 7.55854 13.8331C7.28264 13.5893 7.25625 13.1676 7.49995 12.8917ZM3.623 11.0011C3.9902 10.9785 4.30611 11.2579 4.32905 11.6251C4.34634 11.9044 4.29451 12.3283 4.04097 12.6964C3.75431 13.1122 3.26931 13.3689 2.62593 13.3292C2.25861 13.3065 1.97847 12.9904 2.00093 12.6231C2.02367 12.2556 2.34047 11.9754 2.70796 11.9981C2.82722 12.0055 2.88284 11.9853 2.90132 11.9767C2.9186 11.9685 2.9305 11.9581 2.94331 11.9395C2.95878 11.9171 2.97593 11.8809 2.98726 11.8311C2.99864 11.7811 2.99965 11.7352 2.998 11.7081C2.97526 11.3406 3.25551 11.0238 3.623 11.0011ZM11.9609 11.003C12.2329 10.9871 12.6494 11.0339 13.0146 11.2716C13.4312 11.5429 13.7038 12.0159 13.6621 12.6544C13.638 13.0216 13.3213 13.3003 12.9541 13.2765C12.5866 13.2524 12.3079 12.9349 12.332 12.5675C12.3386 12.4665 12.3202 12.4258 12.3164 12.4181C12.3127 12.4108 12.3066 12.4015 12.2871 12.3888C12.2637 12.3737 12.2248 12.3572 12.1718 12.3458C12.1187 12.3344 12.0694 12.3323 12.039 12.3341C11.6715 12.3556 11.3564 12.0747 11.3349 11.7071C11.3135 11.3397 11.5935 11.0246 11.9609 11.003ZM7.99995 4.3331C10.025 4.3331 11.6669 5.97504 11.6669 8.00009C11.6669 10.0251 10.025 11.6671 7.99995 11.6671C5.97496 11.6671 4.33301 10.0251 4.33296 8.00009C4.33296 5.97506 5.97493 4.33312 7.99995 4.3331ZM2.16694 7.22567C2.41071 6.94974 2.83242 6.92331 3.10835 7.16708C3.38411 7.41088 3.40968 7.83261 3.16597 8.10849C2.98703 8.31088 2.66275 8.56426 2.23726 8.64267C1.75418 8.73163 1.24554 8.57418 0.833935 8.10849C0.590235 7.83263 0.615846 7.41088 0.891552 7.16708C1.16749 6.92331 1.58919 6.94974 1.83296 7.22567C1.90422 7.30628 1.95026 7.32596 1.96186 7.33017C1.97217 7.33389 1.98072 7.33494 1.99604 7.33212C2.016 7.32842 2.04717 7.31679 2.08491 7.29306C2.12278 7.2692 2.15214 7.24236 2.16694 7.22567ZM14.2373 7.02353C14.663 7.10197 14.9871 7.35624 15.166 7.55868C15.4097 7.83462 15.3843 8.25632 15.1083 8.50009C14.8324 8.74379 14.4107 8.7174 14.1669 8.44149C14.1522 8.4248 14.1231 8.39716 14.0849 8.37313C14.0472 8.34943 14.016 8.33876 13.996 8.33505C13.9807 8.33223 13.9722 8.33328 13.9619 8.337C13.95 8.34133 13.904 8.36107 13.833 8.44149C13.5892 8.71737 13.1675 8.74383 12.8916 8.50009C12.6156 8.25632 12.5902 7.83462 12.8339 7.55868C13.2456 7.09279 13.7541 6.93458 14.2373 7.02353ZM3.37593 2.33505C3.74338 2.35779 4.02362 2.67366 4.00093 3.0411C3.99925 3.06827 4.0002 3.11477 4.01167 3.16513C4.02301 3.21482 4.04011 3.25095 4.05561 3.27353C4.0685 3.29223 4.08116 3.30246 4.09858 3.31063C4.11742 3.31942 4.17307 3.34042 4.29194 3.3331C4.65943 3.31035 4.97623 3.58963 4.99897 3.95712C5.02164 4.3244 4.74217 4.6402 4.37495 4.66317C3.73086 4.70303 3.24482 4.4466 2.95796 4.03036C2.70434 3.66217 2.65262 3.23855 2.66987 2.95907C2.69261 2.59171 3.0086 2.31252 3.37593 2.33505ZM13.041 2.33603C13.4085 2.35877 13.6877 2.67557 13.665 3.04306C13.6422 3.41046 13.3263 3.68976 12.9589 3.66708C12.9319 3.66541 12.886 3.66744 12.8359 3.6788C12.7861 3.69014 12.749 3.70726 12.7265 3.72274C12.7083 3.73542 12.6984 3.74761 12.6904 3.76474C12.6817 3.78341 12.6606 3.83919 12.6679 3.9581C12.6905 4.32546 12.4113 4.64141 12.0439 4.66415C11.6765 4.68684 11.3606 4.40758 11.3378 4.04013C11.298 3.39631 11.5544 2.9108 11.9707 2.62411C12.3386 2.37069 12.7617 2.31879 13.041 2.33603ZM7.55854 0.834072C7.83448 0.590301 8.25618 0.615756 8.49995 0.89169C8.7437 1.16762 8.71728 1.58933 8.44136 1.8331C8.42465 1.84788 8.39699 1.87698 8.373 1.91513C8.34928 1.95284 8.33861 1.98404 8.33491 2.00399C8.33209 2.01932 8.33314 2.02787 8.33686 2.03817C8.34119 2.05003 8.36091 2.09601 8.44136 2.16708C8.71729 2.41085 8.74372 2.83255 8.49995 3.10849C8.25617 3.38434 7.83445 3.40985 7.55854 3.1661C7.09272 2.75451 6.93447 2.24589 7.02339 1.76278C7.10182 1.33716 7.35612 1.01298 7.55854 0.834072Z" fill="#D77A1D"/>
</svg>
