<svg width="16" height="16" viewBox="0 0 16 16" fill="none" xmlns="http://www.w3.org/2000/svg">
<path fill-rule="evenodd" clip-rule="evenodd" d="M14 13.333C14.3682 13.333 14.667 13.6318 14.667 14C14.667 14.3682 14.3682 14.667 14 14.667H2C1.63181 14.667 1.33301 14.3682 1.33301 14C1.33301 13.6318 1.63181 13.333 2 13.333H14ZM3 10.6699C3.36819 10.6699 3.66699 10.9687 3.66699 11.3369C3.66673 11.7049 3.36803 12.0029 3 12.0029H2C1.63197 12.0029 1.33327 11.7049 1.33301 11.3369C1.33301 10.9687 1.63181 10.6699 2 10.6699H3ZM14 10.6699C14.3682 10.6699 14.667 10.9687 14.667 11.3369C14.6667 11.7049 14.368 12.0029 14 12.0029H13C12.632 12.0029 12.3333 11.7049 12.333 11.3369C12.333 10.9687 12.6318 10.6699 13 10.6699H14ZM8 8C9.84084 8 11.3328 9.49221 11.333 11.333C11.333 11.7011 11.035 11.9998 10.667 12H5.33301C4.96497 11.9998 4.66699 11.7011 4.66699 11.333C4.66717 9.49221 6.15916 8 8 8ZM3.28613 6.62305C3.54648 6.3627 3.96914 6.3627 4.22949 6.62305L4.93652 7.33008C5.19655 7.59037 5.19655 8.01217 4.93652 8.27246C4.67617 8.53281 4.25351 8.53281 3.99316 8.27246L3.28613 7.56543C3.02603 7.30515 3.02608 6.88336 3.28613 6.62305ZM11.7705 6.62207C12.0309 6.36172 12.4535 6.36172 12.7139 6.62207C12.9742 6.88242 12.9742 7.30508 12.7139 7.56543L12.0068 8.27246C11.7465 8.53281 11.3238 8.53281 11.0635 8.27246C10.8031 8.01211 10.8031 7.58945 11.0635 7.3291L11.7705 6.62207ZM8 1.33301C8.28687 1.33301 8.52034 1.46837 8.65723 1.5625C8.81112 1.66837 8.95648 1.80258 9.08301 1.93262C9.33663 2.19329 9.60729 2.53656 9.80371 2.78711L10.0293 3.09961C10.0728 3.17174 10.274 3.505 10.0908 3.88281C9.90791 4.25988 9.52375 4.30785 9.43945 4.31836H9.4375C9.31987 4.33307 9.17568 4.33309 9.05859 4.33301H8.6709V6.33301C8.6709 6.7012 8.3721 7 8.00391 7C7.63572 7 7.33691 6.7012 7.33691 6.33301V4.33301H6.94141C6.82432 4.33309 6.68013 4.33307 6.5625 4.31836H6.56055C6.47625 4.30785 6.09209 4.25988 5.90918 3.88281C5.72601 3.505 5.92716 3.17173 5.9707 3.09961L6.19629 2.78711C6.39271 2.53656 6.66337 2.19329 6.91699 1.93262C7.04352 1.80258 7.18888 1.66837 7.34277 1.5625C7.47966 1.46837 7.71313 1.33301 8 1.33301Z" fill="#DFB400"/>
</svg>
