<svg width="16" height="16" viewBox="0 0 16 16" fill="none" xmlns="http://www.w3.org/2000/svg">
<path fill-rule="evenodd" clip-rule="evenodd" d="M14 13.3329C14.3682 13.3329 14.667 13.6318 14.667 13.9999C14.667 14.3681 14.3682 14.6669 14 14.6669H2C1.63181 14.6669 1.33301 14.3681 1.33301 13.9999C1.33302 13.6318 1.63182 13.3329 2 13.3329H14ZM3 10.6699C3.36819 10.6699 3.66699 10.9687 3.66699 11.3369C3.66674 11.7048 3.36804 12.0029 3 12.0029H2C1.63196 12.0029 1.33326 11.7048 1.33301 11.3369C1.33301 10.9687 1.63181 10.6699 2 10.6699H3ZM14 10.6699C14.3682 10.6699 14.667 10.9687 14.667 11.3369C14.6667 11.7048 14.368 12.0029 14 12.0029H13C12.632 12.0029 12.3333 11.7048 12.333 11.3369C12.333 10.9687 12.6318 10.6699 13 10.6699H14ZM8 7.99994C9.84083 7.99994 11.3328 9.49216 11.333 11.3329C11.333 11.701 11.035 11.9998 10.667 11.9999H5.33301C4.96497 11.9998 4.66699 11.701 4.66699 11.3329C4.66718 9.49216 6.15917 7.99994 8 7.99994ZM3.28613 6.62299C3.54648 6.36264 3.96914 6.36264 4.22949 6.62299L4.93652 7.33002C5.19656 7.5903 5.19654 8.01211 4.93652 8.2724C4.67617 8.53275 4.25351 8.53275 3.99316 8.2724L3.28613 7.56537C3.02604 7.30508 3.02607 6.88329 3.28613 6.62299ZM11.7705 6.62201C12.0309 6.36168 12.4535 6.36168 12.7139 6.62201C12.9742 6.88235 12.9742 7.30502 12.7139 7.56537L12.0068 8.2724C11.7465 8.53275 11.3238 8.53275 11.0635 8.2724C10.8031 8.01205 10.8031 7.58939 11.0635 7.32904L11.7705 6.62201ZM8.00391 1.33295C8.37209 1.33295 8.67088 1.63176 8.6709 1.99994V3.99994H9.05859C9.17568 3.99986 9.31987 3.99987 9.4375 4.01459H9.43945C9.52374 4.0251 9.90789 4.07318 10.0908 4.45013C10.2739 4.8276 10.0731 5.16071 10.0293 5.23334L9.80371 5.54584C9.60731 5.79636 9.33661 6.13967 9.08301 6.40033C8.95645 6.5304 8.81116 6.66455 8.65723 6.77045C8.52036 6.86458 8.28699 6.99994 8 6.99994C7.71301 6.99994 7.47964 6.86458 7.34277 6.77045C7.18883 6.66455 7.04355 6.5304 6.91699 6.40033C6.66339 6.13967 6.39269 5.79636 6.19629 5.54584L5.9707 5.23334C5.92686 5.1607 5.72608 4.8276 5.90918 4.45013C6.09211 4.07318 6.47626 4.0251 6.56055 4.01459H6.5625C6.68013 3.99987 6.82432 3.99986 6.94141 3.99994H7.33691V1.99994C7.33693 1.63176 7.63573 1.33295 8.00391 1.33295Z" fill="#1D58D7"/>
</svg>
