<svg width="24" height="24" viewBox="0 0 24 24" fill="none" xmlns="http://www.w3.org/2000/svg">
<path d="M7.39634 4.79673C7.48957 4.70349 7.64099 4.7035 7.73423 4.79673L19.2059 16.2674C19.2992 16.3608 19.2991 16.5119 19.2059 16.6053L16.6034 19.2088C15.5904 20.2218 14.7855 21.0263 14.0721 21.5965C13.3386 22.1828 12.6346 22.5774 11.8094 22.7001C11.2464 22.7837 10.6699 22.767 10.1063 22.6522C9.05907 22.4388 8.17704 21.7981 7.14438 20.8514C6.6143 20.3654 6.70248 19.5984 7.11997 19.1805C7.67518 18.6253 7.6906 17.639 7.0272 16.9754C6.36374 16.312 5.37738 16.3266 4.82212 16.8817C4.40437 17.2994 3.63735 17.3883 3.15122 16.8583C2.20449 15.8256 1.56384 14.9436 1.35044 13.8963C1.23559 13.3327 1.21896 12.7563 1.30259 12.1932C1.42521 11.3681 1.81987 10.664 2.4061 9.93052C2.97631 9.21714 3.78081 8.41224 4.7938 7.39927L7.39634 4.79673ZM12.1903 1.30259C12.7534 1.21893 13.3297 1.23563 13.8934 1.35044C14.9407 1.56385 15.8226 2.20445 16.8553 3.15123C17.3853 3.6371 17.2974 4.40442 16.8797 4.82212C16.3247 5.37739 16.3091 6.36376 16.9725 7.0272C17.636 7.69065 18.6223 7.67506 19.1776 7.11998C19.5953 6.70227 20.3626 6.61444 20.8485 7.14439C21.7953 8.1771 22.4359 9.05904 22.6493 10.1063C22.7641 10.67 22.7808 11.2463 22.6971 11.8094C22.5745 12.6346 22.1798 13.3386 21.5936 14.0721C21.3785 14.3412 21.1299 14.6233 20.8495 14.9247C20.6557 15.1329 20.5588 15.2377 20.4315 15.2401C20.3041 15.2424 20.202 15.1395 19.9979 14.9354L9.06333 4.00181C8.85949 3.79798 8.75733 3.69555 8.75962 3.56822C8.76215 3.44103 8.86697 3.34388 9.07505 3.15025C9.37644 2.8698 9.65847 2.62122 9.92759 2.40611C10.6611 1.81988 11.3651 1.42521 12.1903 1.30259Z" fill="white"/>
</svg>
